<svg width="16" height="10" viewBox="0 0 16 10" fill="none" xmlns="http://www.w3.org/2000/svg">
<path d="M0.688991 1.66565L0.688902 1.66556C0.437803 1.39853 0.437919 0.95375 0.688819 0.687067L0.688985 0.686891C0.923208 0.437694 1.28959 0.437716 1.52376 0.686876L1.52377 0.686886L7.53061 7.07796L7.89495 7.4656L8.25929 7.07796L14.2659 0.687151C14.2659 0.68713 14.2659 0.687109 14.2659 0.687088C14.5004 0.437822 14.8667 0.437952 15.1008 0.687077L15.1009 0.687151C15.3517 0.953906 15.3518 1.39879 15.1008 1.66583L15.1008 1.66583L8.31225 8.88856C8.19123 9.01725 8.04052 9.07541 7.89498 9.07541C7.74941 9.07541 7.59851 9.01711 7.47756 8.88846C7.47755 8.88845 7.47754 8.88844 7.47753 8.88843L0.688991 1.66565Z" fill="#E8AA31" stroke="black"/>
</svg>
