<svg version="1.0" xmlns="http://www.w3.org/2000/svg"
 width="1614.000000pt" height="652.000000pt" viewBox="0 0 1614.000000 652.000000">
<g transform="translate(0.000000,652.000000) scale(0.100000,-0.100000)"
fill="#141414" stroke="none">
<path d="M7847 6344 c-1 -1 -141 -5 -312 -9 -170 -4 -337 -8 -370 -9 -33 -2
-136 -6 -230 -10 -93 -4 -197 -11 -230 -16 -33 -5 -107 -12 -165 -15 -58 -2
-134 -7 -170 -10 -36 -3 -90 -7 -120 -9 -169 -13 -324 -27 -390 -36 -258 -33
-318 -41 -345 -46 -16 -2 -73 -9 -125 -14 -80 -9 -211 -28 -355 -54 -16 -2
-59 -8 -95 -11 -36 -4 -72 -9 -80 -10 -67 -15 -135 -27 -190 -35 -71 -11 -208
-35 -255 -44 -16 -4 -91 -18 -165 -32 -74 -14 -193 -38 -265 -55 -71 -16 -141
-31 -155 -33 -14 -3 -38 -9 -53 -15 -16 -6 -39 -11 -52 -11 -12 0 -60 -10
-106 -23 -46 -13 -120 -31 -164 -41 -184 -40 -309 -75 -313 -86 -2 -5 -9 -7
-16 -4 -7 3 -33 0 -57 -6 -24 -6 -72 -17 -106 -25 -33 -7 -83 -21 -110 -30
-26 -9 -60 -18 -74 -20 -14 -2 -52 -13 -85 -25 -32 -11 -66 -22 -74 -24 -38
-6 -180 -48 -280 -82 -25 -8 -49 -16 -55 -17 -5 -2 -17 -7 -25 -12 -8 -5 -26
-10 -40 -11 -47 -5 -642 -200 -705 -231 -22 -11 -60 -25 -85 -32 -25 -8 -58
-19 -75 -26 -33 -14 -72 -29 -180 -68 -113 -40 -287 -108 -331 -128 -23 -10
-64 -26 -90 -35 -27 -9 -78 -29 -114 -46 -36 -16 -85 -37 -110 -45 -25 -8 -60
-23 -78 -34 -18 -10 -37 -19 -42 -19 -6 0 -36 -13 -69 -29 -32 -15 -71 -31
-85 -35 -38 -9 -127 -66 -121 -77 4 -5 -1 -6 -10 -3 -24 9 -15 -32 28 -131 52
-122 59 -138 72 -170 7 -16 24 -55 38 -85 14 -30 40 -93 57 -140 17 -47 38
-97 45 -111 14 -25 74 -173 120 -294 12 -33 36 -91 54 -130 54 -123 161 -384
161 -395 0 -5 14 -38 30 -72 17 -34 30 -66 30 -72 0 -5 9 -28 19 -50 26 -55
70 -160 92 -221 16 -45 52 -135 97 -240 9 -22 31 -67 47 -100 l30 -60 190 -96
c105 -54 210 -105 235 -115 25 -9 61 -27 80 -39 19 -12 55 -29 80 -39 25 -10
86 -37 135 -62 50 -24 126 -60 170 -80 44 -19 96 -44 115 -54 19 -10 71 -32
115 -50 44 -18 109 -45 145 -62 36 -17 87 -39 115 -50 27 -11 61 -25 75 -32
14 -8 36 -18 50 -23 14 -6 57 -24 95 -41 120 -52 349 -146 363 -148 6 -1 31
-11 55 -23 23 -11 98 -40 167 -65 131 -46 221 -80 255 -96 11 -5 36 -13 55
-18 31 -8 139 -48 195 -72 143 -62 1206 -389 1550 -478 22 -5 72 -20 110 -32
76 -23 113 -33 190 -50 28 -6 82 -20 120 -30 39 -11 84 -21 102 -24 17 -3 60
-15 95 -27 34 -11 101 -29 148 -39 129 -29 300 -68 345 -81 22 -6 61 -14 88
-19 26 -5 62 -14 80 -20 17 -5 77 -19 132 -30 55 -10 143 -28 195 -40 151 -32
231 -49 290 -59 30 -6 73 -14 95 -20 77 -18 291 -62 398 -81 60 -11 152 -29
205 -41 146 -33 146 -33 317 1 88 18 192 38 230 45 39 8 93 18 120 24 28 6 82
16 120 21 39 6 86 14 105 19 111 30 162 41 225 51 39 5 104 19 145 29 88 23
283 67 358 81 29 5 94 20 145 34 50 13 135 34 187 45 52 12 113 25 135 31 22
5 76 17 120 26 44 8 100 22 125 29 69 21 198 55 295 78 72 18 337 88 415 110
30 9 87 25 125 35 65 18 145 41 385 113 52 16 169 51 260 80 213 66 276 85
353 108 34 10 76 26 92 35 17 9 38 16 48 16 10 0 46 11 80 24 34 14 125 45
202 71 77 26 154 53 170 60 17 7 59 23 95 35 137 47 176 62 215 79 22 10 56
23 75 29 19 5 98 34 175 65 77 30 158 60 180 67 22 7 45 16 50 20 8 5 87 39
190 80 11 5 52 22 90 38 85 36 262 110 290 121 11 4 56 24 100 44 44 20 123
54 175 77 106 45 136 59 262 119 48 23 106 48 128 56 23 8 54 24 70 35 15 11
31 20 34 20 6 0 155 68 176 80 8 5 44 24 79 41 70 34 104 65 126 113 7 17 34
76 58 132 25 55 54 121 63 145 9 24 20 49 24 54 4 6 30 66 58 135 28 69 66
160 86 203 20 42 36 80 36 83 0 7 129 313 145 344 7 14 31 70 53 125 22 55 54
129 71 165 16 36 43 99 60 140 16 41 41 101 55 132 14 31 26 60 26 64 0 4 11
30 24 58 14 28 34 76 46 106 12 30 33 80 47 110 30 66 38 119 21 140 -20 23
-59 46 -129 75 -35 15 -100 45 -144 67 -44 22 -109 53 -145 68 -36 15 -117 50
-180 78 -110 48 -247 102 -410 161 -41 15 -80 30 -85 33 -21 13 -226 88 -241
88 -8 0 -29 7 -46 16 -36 19 -120 51 -263 100 -111 39 -123 43 -245 76 -47 12
-87 25 -90 29 -3 3 -57 23 -120 43 -63 20 -123 41 -132 47 -10 5 -27 9 -38 9
-11 0 -28 4 -38 9 -9 5 -66 23 -127 40 -60 16 -141 39 -180 51 -38 11 -113 32
-165 46 -52 14 -108 30 -125 35 -116 33 -275 75 -355 94 -52 12 -112 27 -132
33 -28 8 -38 7 -38 -1 0 -7 -5 -4 -11 6 -5 9 -19 17 -30 17 -11 0 -54 9 -97
21 -79 22 -130 34 -287 68 -49 11 -133 30 -185 41 -52 12 -117 25 -145 30 -27
5 -86 16 -130 25 -44 9 -91 19 -105 21 -14 3 -61 11 -105 19 -44 9 -118 22
-165 31 -47 9 -105 20 -130 24 -49 10 -123 20 -184 26 -21 2 -55 8 -75 13 -20
5 -58 12 -86 15 -27 3 -77 11 -110 17 -72 12 -168 25 -250 33 -64 7 -205 25
-243 31 -43 7 -167 19 -175 17 -5 -2 -34 2 -65 8 -32 5 -88 12 -127 15 -38 3
-115 9 -170 15 -165 17 -379 35 -520 44 -302 20 -352 22 -795 31 -537 10 -551
10 -553 9z m603 -180 c151 -4 289 -7 305 -7 17 0 84 -3 150 -8 66 -4 167 -11
225 -14 58 -3 155 -10 215 -14 61 -5 113 -6 118 -4 4 2 22 0 40 -6 17 -6 77
-13 132 -16 113 -6 173 -11 260 -21 33 -4 71 -8 85 -9 14 -1 36 -5 50 -8 14
-3 61 -9 105 -12 44 -3 112 -10 150 -15 39 -5 90 -12 115 -15 93 -12 187 -25
250 -35 36 -6 112 -17 170 -25 58 -8 125 -19 150 -25 45 -9 74 -14 180 -30 74
-11 263 -46 325 -60 28 -6 102 -20 165 -31 157 -27 146 -25 235 -47 44 -11
107 -25 140 -31 109 -21 149 -30 255 -54 58 -14 128 -30 155 -36 98 -23 122
-29 280 -71 88 -23 203 -53 255 -67 52 -13 138 -37 190 -52 52 -16 129 -39
170 -51 41 -11 118 -34 170 -50 52 -16 122 -36 155 -45 33 -9 69 -20 80 -25
11 -5 72 -26 135 -46 63 -20 167 -54 230 -76 63 -22 129 -43 145 -47 17 -4 39
-13 50 -18 17 -10 143 -54 285 -100 59 -20 211 -78 280 -108 85 -37 233 -95
243 -95 4 0 42 -16 83 -35 41 -19 80 -35 87 -35 7 0 17 -4 23 -9 5 -4 56 -27
114 -51 58 -23 120 -50 138 -61 18 -10 39 -19 46 -19 7 0 54 -20 105 -45 85
-43 91 -48 91 -76 0 -30 -50 -163 -115 -309 -54 -120 -83 -198 -77 -204 3 -3
0 -6 -6 -6 -7 0 -12 -4 -12 -9 0 -6 -16 -43 -35 -83 -33 -71 -81 -183 -152
-358 -61 -151 -105 -253 -144 -337 -22 -45 -39 -85 -39 -89 0 -4 -14 -39 -31
-78 -17 -39 -47 -107 -66 -151 -19 -44 -43 -98 -53 -120 -10 -22 -32 -74 -50
-115 -18 -41 -39 -83 -48 -92 -16 -19 -230 -128 -250 -128 -7 0 -12 -4 -12 -9
0 -4 -21 -16 -47 -26 -27 -10 -115 -50 -198 -90 -82 -40 -170 -82 -195 -93
-25 -11 -115 -51 -200 -89 -85 -38 -171 -76 -190 -83 -19 -7 -48 -19 -65 -26
-16 -7 -61 -26 -100 -43 -38 -16 -131 -54 -205 -85 -112 -47 -321 -129 -605
-238 -175 -67 -670 -242 -745 -263 -25 -7 -88 -27 -140 -43 -52 -17 -111 -35
-130 -41 -19 -5 -73 -24 -119 -41 -47 -17 -166 -53 -265 -81 -100 -27 -224
-63 -276 -79 -52 -16 -122 -36 -155 -45 -33 -10 -80 -23 -105 -31 -37 -11
-312 -83 -535 -140 -110 -27 -493 -117 -535 -125 -25 -5 -76 -17 -115 -28 -74
-21 -207 -50 -265 -57 -19 -3 -51 -9 -70 -15 -56 -16 -271 -61 -315 -65 -22
-3 -53 -9 -70 -15 -28 -10 -260 -55 -330 -64 -16 -2 -64 -11 -105 -20 -131
-26 -399 -76 -505 -93 -103 -17 -84 -20 -780 129 -562 120 -698 150 -798 174
-97 25 -235 55 -267 60 -8 1 -22 5 -30 8 -24 9 -137 37 -232 57 -48 10 -91 21
-96 24 -6 3 -38 12 -73 20 -66 15 -183 45 -544 141 -115 31 -228 61 -250 66
-22 6 -71 21 -108 35 -38 13 -76 24 -86 24 -9 0 -59 14 -111 30 -52 17 -187
60 -300 96 -113 36 -214 69 -225 74 -28 11 -211 73 -325 109 -163 51 -383 131
-432 156 -26 14 -57 25 -68 25 -17 0 -114 36 -285 105 -16 7 -57 22 -90 35
-33 12 -131 51 -217 86 -86 35 -160 64 -163 64 -4 0 -23 7 -43 16 -66 29 -115
50 -242 104 -69 29 -142 60 -162 71 -20 10 -81 37 -135 59 -138 59 -187 82
-551 262 -233 116 -329 168 -344 189 -22 30 -73 145 -143 327 -24 63 -48 119
-53 125 -5 7 -20 44 -35 82 -14 39 -56 142 -92 230 -37 88 -85 203 -106 255
-22 52 -43 104 -48 115 -5 11 -19 45 -31 75 -13 30 -29 69 -36 87 -8 17 -14
35 -14 40 0 4 -7 21 -15 37 -9 16 -38 86 -66 155 -28 69 -61 147 -74 173 -13
26 -28 62 -34 80 -5 18 -24 67 -41 108 -17 41 -30 83 -28 95 4 26 75 63 283
145 99 39 167 68 270 114 45 20 88 36 97 36 9 0 51 16 94 35 42 19 82 35 89
35 7 0 26 7 41 15 16 8 36 15 45 15 8 0 19 4 25 8 5 5 70 28 144 52 74 23 144
48 155 55 11 7 81 34 155 60 74 26 150 53 168 61 18 8 41 14 52 14 10 0 39 9
64 19 24 11 75 27 113 37 37 9 75 21 83 25 8 5 44 17 80 28 36 11 79 24 95 30
17 6 64 20 105 31 41 12 125 37 185 56 106 32 155 46 240 64 22 5 52 13 68 19
15 6 38 13 50 15 69 15 293 70 357 88 41 11 112 28 157 37 45 9 85 20 89 24 4
4 21 7 38 7 17 0 54 7 81 16 28 8 73 19 100 25 50 9 67 13 200 43 39 9 93 21
120 26 28 6 59 12 70 14 124 27 269 55 305 59 25 3 77 13 115 21 39 9 86 18
105 21 19 2 94 14 165 25 72 11 146 23 165 26 19 2 64 9 100 14 36 5 81 12
100 14 19 3 116 16 215 30 195 27 344 44 500 56 55 5 136 13 180 19 44 6 114
13 155 15 41 3 107 7 145 10 39 3 111 8 160 11 50 3 115 8 145 10 258 17 329
19 910 29 234 5 427 10 429 12 3 2 12 2 20 0 9 -3 140 -8 291 -12z"/>
<path d="M7608 6025 c-2 -1 -128 -5 -282 -9 -153 -3 -281 -8 -285 -10 -3 -2
-69 -7 -146 -10 -77 -4 -196 -11 -265 -17 -150 -12 -348 -28 -410 -34 -25 -2
-103 -9 -175 -15 -71 -6 -161 -15 -200 -20 -38 -5 -108 -14 -155 -20 -196 -22
-418 -51 -460 -60 -25 -5 -79 -13 -120 -19 -253 -38 -975 -171 -998 -185 -4
-2 -25 -7 -47 -10 -85 -14 -254 -48 -345 -71 -52 -13 -129 -31 -170 -40 -364
-79 -1007 -257 -1395 -387 -82 -28 -170 -56 -195 -63 -25 -7 -110 -36 -190
-64 -80 -28 -197 -69 -261 -91 -63 -21 -141 -50 -173 -64 -32 -14 -79 -32
-105 -40 -78 -25 -195 -68 -206 -76 -5 -4 -28 -13 -50 -20 -22 -7 -44 -16 -50
-20 -5 -4 -37 -17 -70 -29 -33 -12 -80 -32 -105 -43 -25 -11 -56 -25 -70 -30
-34 -14 -142 -69 -157 -81 -18 -14 -16 -54 6 -101 31 -68 131 -303 131 -309 0
-4 11 -31 25 -61 14 -30 25 -58 25 -63 0 -6 91 -234 120 -298 33 -74 70 -164
70 -170 0 -3 11 -30 24 -58 25 -52 81 -188 118 -282 10 -27 30 -74 43 -103 14
-29 25 -55 25 -58 0 -6 19 -51 50 -119 10 -22 27 -62 38 -90 37 -93 73 -165
82 -165 6 0 57 -22 113 -50 57 -27 110 -50 119 -50 8 0 21 -7 28 -15 7 -8 17
-15 22 -15 5 0 66 -27 136 -61 158 -76 209 -99 297 -139 39 -17 102 -46 140
-65 39 -18 88 -41 110 -50 22 -10 76 -34 120 -55 44 -21 97 -43 117 -50 21 -6
40 -16 43 -21 4 -5 14 -9 23 -9 9 0 28 -6 42 -13 14 -7 48 -21 75 -31 28 -10
72 -29 99 -42 28 -13 57 -24 66 -24 9 0 39 -11 68 -25 28 -13 93 -41 144 -61
51 -19 126 -49 166 -65 40 -17 103 -41 140 -54 37 -13 110 -40 162 -60 52 -20
109 -41 125 -46 31 -8 138 -47 188 -68 16 -6 33 -11 38 -11 5 0 17 -4 27 -10
9 -5 112 -39 227 -75 116 -36 266 -83 335 -105 213 -67 327 -100 344 -100 9 0
55 -13 103 -29 164 -53 449 -134 658 -185 146 -37 184 -46 239 -62 26 -8 56
-14 66 -14 9 0 55 -10 101 -21 46 -12 122 -30 169 -40 47 -10 114 -25 150 -34
36 -8 97 -22 135 -31 39 -9 108 -25 155 -36 47 -10 105 -23 130 -27 81 -15
293 -61 395 -85 138 -33 229 -53 305 -66 36 -6 103 -20 150 -31 103 -24 149
-35 215 -48 28 -6 92 -20 143 -32 84 -19 101 -20 190 -10 53 6 115 16 137 20
22 5 74 15 115 21 141 21 195 30 410 70 118 22 262 51 320 64 58 14 137 31
175 40 137 29 261 58 360 82 106 26 251 59 440 99 63 13 147 33 187 44 40 11
98 24 128 30 30 5 100 21 155 35 101 25 126 32 225 61 30 9 114 32 185 50 72
18 175 45 230 60 55 15 114 31 130 35 17 4 44 13 60 18 17 6 77 24 135 41 58
17 119 36 135 41 17 5 93 27 170 50 159 46 366 112 440 140 28 10 102 35 165
55 63 20 149 50 190 66 42 16 90 32 108 35 18 4 35 11 38 15 3 5 12 9 21 9 8
0 43 12 77 26 33 14 77 32 96 39 19 7 69 26 110 42 41 17 95 37 120 46 102 36
290 109 355 138 39 18 79 36 90 40 11 5 94 40 185 79 90 38 168 70 173 70 15
0 319 137 612 275 61 29 121 56 135 60 26 8 91 54 125 89 24 25 49 75 64 131
6 22 22 60 36 84 14 24 37 74 51 110 60 155 185 450 214 503 11 20 20 43 20
51 0 7 20 55 45 106 25 51 45 97 45 102 0 6 11 34 24 62 13 29 38 86 56 127
86 200 103 238 120 275 18 39 37 83 79 179 11 27 21 59 21 72 0 30 -72 89
-129 104 -24 6 -51 15 -60 20 -67 33 -522 214 -741 294 -69 25 -156 57 -195
71 -82 31 -274 98 -360 126 -33 11 -67 22 -75 26 -8 3 -21 7 -28 9 -7 1 -72
22 -145 47 -182 61 -386 125 -422 133 -16 3 -70 19 -120 34 -103 33 -419 121
-533 150 -43 10 -158 40 -257 66 -99 25 -198 50 -220 55 -126 25 -281 58 -520
109 -194 41 -603 116 -765 140 -74 12 -142 23 -150 25 -8 3 -78 13 -155 24
-77 11 -185 27 -240 36 -113 17 -561 69 -735 84 -63 6 -133 13 -155 16 -112
13 -474 36 -870 55 -183 9 -1119 22 -1127 15z m1261 -470 c13 -13 18 -309 8
-440 -8 -94 -7 -101 13 -122 11 -13 28 -23 37 -23 9 0 41 25 70 55 57 61 70
96 60 170 -4 29 -3 44 6 47 24 9 204 -17 228 -33 l24 -16 -34 -69 c-34 -71
-106 -143 -169 -170 -57 -24 -50 -45 33 -103 36 -25 43 -37 69 -117 42 -136
47 -146 83 -194 43 -56 40 -56 -117 -36 -86 11 -118 20 -133 35 -20 20 -22 28
-32 141 -9 103 -33 177 -67 205 -72 61 -95 4 -78 -194 6 -73 13 -100 31 -124
21 -29 21 -30 3 -44 -10 -8 -28 -12 -39 -9 -11 3 -63 6 -116 6 -66 0 -101 4
-115 14 -18 14 -19 16 -1 65 20 57 26 254 8 275 -6 7 -29 21 -51 31 -52 24
-51 35 5 35 33 0 47 5 54 19 10 17 15 183 12 418 -1 103 -3 114 -26 141 -43
51 -37 54 100 50 68 -2 129 -8 134 -13z m-2907 -78 c-26 -28 -43 -101 -35
-153 12 -80 45 -114 126 -129 50 -10 54 -21 22 -55 -25 -26 -27 -36 -28 -107
-1 -90 4 -133 38 -332 13 -79 34 -163 46 -188 14 -29 18 -48 12 -54 -16 -16
-191 -47 -245 -44 -69 5 -77 15 -45 64 32 48 33 72 13 244 -8 67 -19 163 -25
212 -12 112 -25 142 -70 161 l-36 15 39 33 39 32 -7 68 c-14 130 37 230 130
253 49 12 53 9 26 -20z m161 22 c87 -40 61 -179 -34 -179 -32 0 -41 5 -58 34
-14 22 -21 50 -21 85 0 28 -4 51 -10 51 -5 0 -10 5 -10 10 0 13 103 13 133 -1z
m-562 -118 c33 -32 39 -45 39 -79 0 -56 -17 -88 -56 -107 -52 -24 -86 -27
-126 -11 -46 20 -68 59 -68 122 0 39 5 51 34 80 30 30 40 34 86 34 47 0 56 -4
91 -39z m-1063 -124 c11 -22 12 -38 4 -70 -10 -36 -8 -46 10 -75 44 -71 9
-184 -93 -300 -66 -75 -71 -99 -34 -148 14 -18 25 -35 25 -38 0 -4 20 -34 44
-69 24 -34 58 -88 75 -119 18 -31 38 -62 46 -68 7 -6 17 -25 20 -41 7 -33 39
-59 71 -59 28 0 74 54 74 87 0 45 -72 396 -92 453 -11 30 -31 69 -44 87 -44
58 -33 71 80 97 94 22 104 21 142 -21 l34 -37 47 21 c116 49 179 64 243 56
121 -15 172 -95 171 -268 0 -44 -7 -110 -15 -145 -34 -146 -44 -225 -36 -285
7 -58 39 -137 60 -150 17 -11 11 -25 -11 -25 -25 0 -116 42 -145 67 -11 10
-28 38 -38 63 -10 25 -22 52 -26 60 -13 27 -23 84 -23 135 0 28 1 120 3 205 2
162 -4 197 -42 238 -27 28 -62 28 -118 -2 -75 -40 -78 -62 -40 -289 19 -110
53 -198 96 -250 31 -37 30 -52 -3 -65 -36 -13 -213 -48 -233 -45 -8 1 -49 -7
-90 -18 -88 -22 -301 -60 -311 -53 -4 2 -9 30 -11 61 -6 71 -14 91 -142 316
-41 73 -60 82 -105 51 -21 -15 -23 -22 -18 -68 19 -163 39 -256 67 -311 17
-32 30 -66 30 -74 0 -16 -96 -51 -142 -51 -13 0 -51 -6 -85 -13 -38 -8 -68
-10 -78 -4 -14 7 -14 12 5 42 30 48 30 60 9 160 -18 85 -41 194 -58 276 -11
50 -15 55 -66 69 -31 9 -58 27 -89 60 -42 44 -66 93 -53 106 3 3 29 -18 59
-46 39 -38 59 -50 78 -48 24 3 25 5 22 73 -1 39 -9 103 -18 142 -15 66 -20 77
-65 117 -27 24 -49 48 -49 54 0 20 117 50 280 72 68 9 84 4 75 -24 -15 -54
-15 -89 4 -195 17 -101 29 -130 53 -131 3 0 21 19 40 41 18 23 44 55 56 70 27
33 50 37 58 12 27 -84 61 -120 88 -93 6 6 13 48 14 93 5 122 -29 202 -113 261
-13 10 -17 18 -10 24 15 15 114 42 154 42 20 0 43 5 51 10 8 6 33 9 55 8 33
-3 42 -8 53 -31z m6792 20 c13 -7 35 -30 48 -52 41 -71 14 -188 -62 -273 -34
-38 -102 -79 -112 -69 -3 3 6 22 21 42 41 61 33 87 -33 104 -54 15 -75 46 -75
114 -1 61 22 110 61 131 33 19 118 20 152 3z m-4651 -58 c72 -40 124 -99 123
-140 0 -17 -2 -32 -4 -34 -2 -1 -50 -36 -108 -78 -130 -94 -220 -178 -220
-206 0 -11 15 -31 33 -45 60 -46 130 -32 236 48 52 39 54 40 68 21 11 -15 13
-35 8 -80 -13 -128 -114 -213 -253 -215 -53 0 -119 26 -210 82 -41 25 -96 135
-116 234 -23 108 -2 227 55 310 52 77 116 118 209 134 66 12 117 3 179 -31z
m446 -1 c12 -18 20 -19 59 -14 25 4 48 11 51 17 4 5 32 9 64 9 43 0 70 -7 105
-25 58 -31 62 -31 128 -2 77 34 166 42 203 17 69 -44 85 -65 117 -155 33 -94
16 -265 -44 -440 -37 -108 -43 -175 -25 -252 10 -37 17 -71 17 -75 0 -34 -113
73 -136 129 -41 96 -44 124 -33 254 7 68 12 167 13 219 1 87 -2 100 -29 155
-33 66 -74 97 -100 75 -19 -15 -24 -62 -29 -265 -5 -192 2 -253 33 -274 27
-18 27 -37 -1 -45 -35 -9 -231 -7 -246 3 -11 6 -11 17 -2 51 7 24 12 135 13
264 2 245 -3 270 -63 301 -41 21 -55 19 -80 -12 -21 -26 -22 -35 -16 -143 4
-63 9 -171 12 -239 4 -119 10 -141 47 -194 10 -14 9 -19 -3 -27 -17 -11 -232
-12 -270 -1 -25 7 -42 41 -20 41 27 0 37 65 34 210 -1 80 -3 193 -3 251 -1
100 -3 108 -27 134 -35 38 -21 48 74 55 103 7 140 2 157 -22z m1120 -4 c-40
-21 -46 -32 -44 -84 1 -25 -1 -55 -5 -68 -9 -28 -55 -52 -100 -52 -67 0 -97
80 -56 148 11 17 21 32 23 32 1 0 27 9 57 20 30 10 78 19 105 20 l50 0 -30
-16z m130 -12 c64 -22 108 -67 134 -137 18 -49 21 -78 21 -236 0 -184 3 -203
42 -246 20 -21 20 -21 0 -32 -12 -6 -68 -11 -126 -11 l-105 0 -16 29 c-22 43
-30 45 -91 20 -50 -21 -60 -22 -122 -11 -68 11 -72 14 -135 91 -47 58 -49 128
-8 193 32 51 69 73 146 87 28 5 63 14 78 20 16 6 46 11 68 11 71 0 79 10 79
100 0 74 -2 80 -30 107 -52 49 -42 51 65 15z m1377 -8 c103 -40 198 -141 172
-182 -11 -16 -169 -142 -179 -142 -3 0 -37 -21 -75 -47 -77 -52 -85 -71 -50
-116 55 -70 169 -47 256 52 25 29 44 21 38 -16 -15 -84 -116 -198 -201 -227
-59 -20 -97 -20 -159 0 -104 35 -170 110 -200 224 -26 102 0 208 91 371 21 37
37 49 108 75 74 27 141 30 199 8z m2595 -43 c21 -12 63 -39 92 -60 55 -39 109
-61 150 -61 12 0 31 -5 42 -11 19 -10 16 -14 -35 -70 -30 -32 -72 -90 -92
-127 -21 -37 -39 -69 -41 -71 -8 -11 -12 12 -18 104 -5 82 -11 110 -34 155
-51 100 -129 127 -196 69 -19 -17 -35 -35 -35 -41 0 -5 -11 -24 -25 -42 -25
-33 -104 -226 -131 -321 -21 -76 -42 -192 -48 -268 -3 -37 -8 -72 -11 -77 -10
-16 14 -88 38 -115 35 -40 83 -43 133 -7 40 29 100 118 122 181 17 48 15 117
-4 146 -26 39 1 41 102 5 49 -17 96 -32 104 -32 29 -1 52 -31 45 -58 -26 -108
-115 -368 -132 -386 -8 -8 -25 -14 -38 -14 -20 0 -26 8 -36 43 -6 23 -14 49
-19 57 -10 20 -70 17 -86 -5 -21 -28 -82 -36 -154 -19 -77 18 -136 50 -179 99
-70 81 -94 161 -92 319 2 91 7 124 30 195 37 111 75 197 106 237 14 18 25 35
25 38 0 6 65 72 113 115 57 52 226 64 304 22z m-2242 -17 c33 -8 78 -19 100
-24 22 -4 55 -14 72 -21 26 -11 39 -11 66 -1 62 22 103 16 148 -25 22 -20 47
-49 55 -65 19 -36 31 -35 85 6 50 38 80 48 159 52 90 5 152 -12 190 -51 19
-19 36 -43 38 -52 15 -68 14 -71 -12 -88 -19 -13 -40 -16 -76 -13 -71 7 -84
21 -76 85 6 48 4 54 -19 69 -17 11 -35 14 -60 10 -43 -8 -65 -30 -65 -65 0
-31 20 -51 100 -104 83 -54 131 -98 175 -163 37 -54 40 -62 39 -125 -2 -124
-74 -190 -213 -198 -63 -3 -83 1 -143 25 -94 38 -160 98 -182 165 -16 48 -16
52 2 82 40 70 105 73 149 8 l23 -34 -20 -34 c-26 -44 -25 -74 2 -108 47 -60
128 -71 178 -25 28 26 32 35 27 65 -10 60 -38 104 -91 142 -82 60 -183 161
-192 195 -14 48 -35 55 -93 34 -85 -30 -149 6 -138 78 9 62 -21 75 -65 29 -43
-45 -47 -62 -75 -298 -13 -109 -7 -162 22 -197 31 -37 29 -63 -5 -62 -60 2
-275 26 -283 31 -5 3 7 20 28 38 36 29 39 37 46 101 4 38 15 128 24 199 9 72
19 161 22 198 5 67 5 69 -27 102 l-33 34 24 10 c31 13 25 13 94 -5z m-4456
-57 c6 -8 15 -45 20 -83 62 -432 72 -479 102 -518 43 -54 21 -68 -140 -86
-100 -11 -126 -5 -101 25 12 15 10 143 -5 236 -40 244 -63 350 -81 370 -29 32
-18 41 72 55 21 3 40 7 41 7 10 9 83 3 92 -6z m-3433 -361 c11 -8 28 -34 38
-58 10 -24 24 -57 31 -74 8 -17 21 -69 31 -115 9 -46 23 -91 30 -99 12 -12 17
-11 41 11 60 53 121 88 172 100 69 16 186 -25 225 -77 44 -60 44 -233 1 -397
-20 -77 -19 -195 1 -249 29 -75 66 -152 82 -171 8 -9 13 -20 10 -23 -9 -8 -73
22 -115 53 -134 101 -179 236 -153 466 20 186 -20 287 -116 287 -84 0 -143
-86 -99 -144 8 -11 15 -29 15 -40 0 -19 42 -151 60 -191 5 -11 14 -38 19 -60
34 -143 44 -172 66 -195 15 -16 21 -30 16 -38 -8 -13 -199 -83 -258 -95 -42
-8 -46 0 -18 38 32 41 32 77 -1 184 -14 47 -35 118 -47 156 -11 39 -26 87 -33
107 -7 20 -39 124 -70 230 -65 223 -91 296 -112 321 -21 23 -10 32 73 61 87
29 86 29 111 12z m11571 -62 c41 -31 50 -75 28 -130 -30 -77 -119 -98 -192
-45 -45 32 -59 73 -42 118 33 89 130 115 206 57z m-10429 -22 c48 -31 92 -75
92 -93 0 -21 -46 -82 -153 -203 -125 -141 -133 -162 -76 -191 33 -18 79 -19
133 -4 41 11 131 88 141 120 10 31 35 22 52 -18 20 -49 12 -129 -19 -191 -26
-52 -102 -116 -152 -127 -78 -17 -132 -9 -207 29 -41 21 -85 47 -98 59 -37 35
-84 107 -113 177 -24 55 -28 78 -28 156 0 125 35 205 115 261 59 42 84 52 150
60 64 9 111 -1 163 -35z m-1414 -20 c7 -12 -15 -296 -24 -305 -4 -5 -21 -2
-37 7 -17 8 -53 18 -81 22 -66 8 -73 -6 -39 -73 14 -26 35 -69 46 -95 12 -25
29 -49 37 -52 8 -3 31 9 53 29 21 19 41 35 44 35 12 0 -17 -85 -54 -152 -15
-28 -12 -42 42 -202 74 -217 91 -246 148 -246 30 0 28 -43 -1 -58 -53 -25
-246 -82 -281 -82 -50 0 -58 22 -22 60 36 38 35 60 -10 190 -20 58 -40 119
-46 136 -5 17 -18 39 -29 49 -18 16 -25 17 -54 7 -58 -21 -140 -9 -221 35 -88
46 -175 175 -175 258 0 56 49 175 96 234 21 28 44 50 49 51 6 0 38 13 72 29
65 31 176 55 306 67 62 5 86 12 120 35 45 31 53 33 61 21z m10836 -33 c138
-25 139 -29 78 -234 -42 -143 -68 -246 -68 -273 0 -33 43 -72 80 -72 63 0 104
69 155 261 39 147 42 175 19 207 -9 13 -13 26 -10 30 6 6 202 -34 220 -45 12
-8 -1 -92 -34 -208 -6 -22 -17 -65 -24 -96 -7 -31 -16 -60 -19 -66 -4 -6 -16
-54 -28 -108 l-21 -97 22 -31 23 -30 -34 7 c-19 4 -38 9 -44 10 -5 1 -37 8
-70 15 -33 6 -70 14 -81 16 -12 3 -27 18 -34 36 -13 30 -14 31 -59 23 -101
-16 -179 4 -233 59 -33 34 -38 46 -38 86 0 43 31 155 80 296 26 73 37 174 22
202 -14 25 -4 36 23 28 11 -3 45 -10 75 -16z m1340 -99 c99 -29 98 -29 61
-160 -5 -19 -21 -75 -35 -125 -30 -109 -71 -232 -126 -385 -44 -122 -52 -187
-30 -240 7 -17 11 -32 9 -35 -2 -2 -47 8 -99 21 -192 51 -200 56 -162 97 11
12 28 42 37 67 9 25 21 54 26 65 5 11 24 67 43 125 18 58 47 141 63 185 44
119 64 177 73 210 26 94 39 158 34 166 -8 13 5 29 23 29 9 0 46 -9 83 -20z
m710 -95 c25 -14 59 -32 77 -40 18 -8 37 -23 42 -33 10 -19 1 -75 -23 -137
-48 -125 -69 -186 -82 -235 -7 -30 -25 -86 -40 -125 -14 -38 -37 -104 -51
-145 -14 -41 -29 -79 -33 -85 -15 -21 -43 -102 -55 -158 -12 -57 -11 -59 17
-98 15 -21 28 -42 28 -45 0 -14 -243 35 -259 52 -3 3 -5 17 -6 32 0 26 -2 27
-62 28 -130 2 -202 46 -258 158 -40 80 -30 208 26 323 60 125 237 197 371 152
83 -28 120 -25 140 9 8 15 21 45 28 67 6 22 25 72 41 112 33 81 38 147 12 175
-15 17 -15 18 13 18 16 0 49 -12 74 -25z m-1188 -56 c42 -16 78 -35 81 -42 4
-12 -41 -179 -61 -221 -5 -11 -25 -68 -43 -126 -33 -105 -42 -186 -26 -242 6
-25 5 -28 -16 -28 -13 0 -27 4 -32 9 -6 5 -53 23 -105 41 -133 43 -132 43 -89
82 19 18 42 53 51 78 41 119 68 213 85 292 15 75 16 92 4 120 -7 18 -15 44
-18 57 -6 23 -5 24 43 16 27 -4 83 -20 126 -36z m-3422 -159 c18 -11 19 -52
20 -725 0 -762 -3 -968 -11 -993 -11 -29 -51 -44 -100 -36 -73 12 -70 -37 -66
886 3 574 8 831 15 851 11 25 16 27 69 27 32 0 65 -5 73 -10z m-1600 -523 c52
0 368 1 702 2 394 1 615 -2 627 -8 27 -15 31 -60 30 -403 0 -352 4 -336 -89
-357 -30 -6 -71 -16 -90 -20 -133 -33 -281 -54 -294 -41 -17 17 -24 309 -9
342 20 43 16 67 -13 78 -35 14 -926 12 -2514 -5 -399 -4 -732 -7 -740 -7 -8 1
-163 1 -345 1 -181 0 -490 0 -685 0 -195 0 -389 -4 -430 -9 -41 -5 -151 -14
-245 -19 -162 -9 -235 -22 -235 -42 0 -21 56 -27 310 -34 146 -4 360 -10 475
-13 278 -8 1072 -8 1850 1 934 11 2098 15 2282 8 89 -3 167 -11 172 -16 6 -6
15 -85 21 -175 5 -91 12 -182 16 -202 5 -34 3 -38 -28 -55 -31 -17 -88 -18
-1163 -16 -1802 3 -3504 16 -3590 28 -27 3 -106 15 -175 26 -69 10 -143 22
-165 25 -22 4 -47 8 -55 9 -8 1 -49 8 -90 14 -168 27 -300 57 -425 97 -38 12
-104 32 -145 44 -85 25 -76 22 -224 86 -155 68 -312 160 -410 240 -89 72 -105
92 -84 105 7 4 96 7 198 5 309 -4 746 19 869 45 23 5 73 12 110 15 36 3 107
12 156 20 50 8 119 19 155 25 36 5 83 14 105 20 22 6 76 17 120 25 44 7 112
20 150 29 39 9 97 20 130 26 33 6 69 14 80 19 40 16 146 40 179 40 18 0 52 6
74 14 22 8 57 18 79 22 21 3 368 7 772 8 689 1 734 0 745 -16 8 -13 8 -23 0
-35 -17 -27 -130 -32 -839 -36 -627 -4 -631 -4 -760 -30 -71 -14 -173 -33
-225 -42 -52 -9 -124 -25 -160 -35 -36 -10 -110 -28 -165 -40 -55 -13 -127
-31 -159 -41 -33 -11 -71 -19 -85 -19 -14 0 -57 -7 -96 -16 -38 -9 -88 -20
-110 -24 -111 -23 -166 -43 -163 -59 5 -23 69 -20 193 6 55 12 160 29 234 38
74 9 144 20 156 25 12 5 66 13 121 19 143 16 229 30 314 51 233 57 474 73
1120 74 l555 1 53 28 c45 24 57 36 77 80 12 29 29 58 37 65 20 16 129 18 938
13 388 -2 748 -3 800 -4z m1725 -24 c7 -19 7 -447 0 -558 -5 -74 -11 -87 -26
-65 -8 11 -7 443 1 638 0 10 19 -2 25 -15z m1715 -26 c978 -5 996 -5 1055 -26
77 -27 120 -63 159 -131 28 -49 31 -64 30 -135 0 -63 -5 -89 -22 -123 -29 -55
-94 -117 -153 -147 -45 -23 -57 -24 -340 -29 -453 -8 -2242 -9 -2261 -1 -20 8
-21 14 -20 305 0 102 3 209 7 237 l6 53 177 2 c97 2 220 2 272 1 52 -1 543 -4
1090 -6z m-1621 -342 c0 -215 -6 -271 -26 -251 -10 9 -6 464 4 521 l7 40 7
-40 c5 -22 8 -144 8 -270z m-5734 -886 c102 -38 278 -96 520 -171 136 -43 282
-118 341 -174 41 -40 45 -48 31 -56 -10 -5 -21 -7 -26 -3 -6 3 -76 8 -158 11
-81 2 -168 9 -193 14 -25 5 -63 11 -85 13 -58 7 -87 20 -199 94 -186 121 -400
314 -348 313 4 0 57 -19 117 -41z m6970 -55 c-16 -15 -44 -39 -60 -53 -30 -27
-169 -121 -179 -121 -3 0 -27 -15 -53 -32 -26 -18 -109 -64 -183 -101 l-135
-69 -85 8 c-47 4 -123 8 -170 8 -97 2 -101 8 -47 64 37 39 191 116 263 132 27
6 76 19 109 30 50 16 236 69 350 99 17 4 52 18 78 30 26 12 51 20 55 18 4 -3
16 -1 27 4 11 4 29 8 40 8 17 0 16 -3 -10 -25z m-6092 -63 c39 -16 92 -35 117
-41 44 -13 185 -74 245 -106 17 -9 66 -35 109 -56 65 -33 215 -132 236 -157 3
-3 24 -19 48 -35 23 -16 42 -32 42 -36 0 -4 26 -27 57 -51 60 -46 92 -78 93
-93 0 -9 -60 -4 -160 13 -65 11 -145 39 -180 64 -13 9 -30 17 -36 17 -14 0
-108 41 -179 78 -130 67 -283 188 -408 325 -48 52 -87 98 -87 101 0 12 33 5
103 -23z m5231 -39 c6 -10 -39 -77 -95 -140 -89 -100 -342 -266 -554 -363
-168 -77 -202 -87 -268 -83 -126 8 -136 23 -52 81 103 70 160 114 207 157 80
75 253 168 383 206 22 7 54 18 70 25 17 7 64 25 105 39 41 15 98 40 125 56 53
30 71 35 79 22z m-3871 -193 c111 -47 300 -157 380 -222 110 -90 152 -133 235
-242 87 -115 131 -158 187 -186 22 -11 69 -38 105 -59 36 -21 71 -39 78 -39
20 -1 122 -53 122 -63 0 -13 -32 -9 -95 13 -143 50 -232 68 -303 59 -37 -5
-86 -16 -110 -24 -23 -8 -60 -17 -82 -20 -22 -3 -43 -7 -48 -9 -4 -3 -32 -8
-62 -11 -30 -4 -71 -11 -92 -16 -40 -11 -242 -1 -333 16 -11 2 -47 9 -80 15
-33 6 -104 19 -158 30 -54 10 -121 19 -148 19 -52 0 -89 13 -89 31 0 22 97 51
200 60 58 5 125 14 150 20 98 24 444 21 693 -7 67 -8 75 4 20 31 -21 10 -46
22 -55 26 -25 13 -46 11 -51 -3 -3 -7 -6 -4 -6 7 -1 12 -13 28 -28 37 -16 9
-46 33 -68 53 -22 20 -76 67 -120 105 -107 91 -355 370 -355 399 0 19 39 12
113 -20z m-495 -27 c45 -17 124 -50 175 -72 237 -108 302 -145 382 -219 61
-56 209 -221 203 -226 -7 -7 -125 21 -203 48 -38 14 -103 36 -143 50 -87 31
-185 83 -268 142 -94 68 -284 273 -284 309 0 12 44 2 138 -32z m2982 18 c0
-11 -14 -48 -30 -81 -47 -93 -278 -316 -417 -402 -38 -23 -90 -58 -118 -77
-87 -60 -258 -140 -302 -140 -18 0 -25 -11 84 131 111 144 173 219 228 275 56
57 205 160 280 194 27 12 61 30 74 39 37 24 164 80 184 80 11 1 17 -6 17 -19z
m550 -51 c0 -31 -170 -193 -275 -263 -49 -32 -122 -74 -164 -93 -42 -19 -94
-43 -117 -53 -23 -11 -48 -20 -56 -20 -8 0 -36 -11 -61 -24 -55 -30 -228 -86
-262 -86 -14 0 -25 6 -25 13 1 11 15 23 129 105 25 19 93 81 151 138 121 119
159 139 414 219 82 26 167 56 190 66 55 25 76 24 76 -2z m-4405 -61 c44 -9
107 -24 140 -33 33 -9 83 -23 110 -29 89 -22 269 -110 267 -131 -1 -6 -54 -16
-118 -22 -63 -7 -132 -17 -152 -23 -126 -35 -298 13 -607 169 -66 34 -125 61
-132 61 -7 0 -13 6 -13 14 0 21 395 16 505 -6z m5485 -27 c121 -26 187 -45
203 -56 17 -12 16 -14 -15 -23 -18 -6 -60 -13 -93 -17 -33 -4 -112 -24 -175
-45 -146 -49 -449 -125 -545 -137 -22 -3 -58 -12 -80 -20 -51 -19 -94 -17
-166 7 -32 11 -66 20 -75 20 -33 0 -6 25 52 48 32 13 138 61 234 107 161 77
240 105 345 125 52 9 258 4 315 -9z m-2793 -54 c36 -19 100 -89 113 -123 18
-45 12 -171 -9 -212 -91 -176 -358 -175 -446 1 -60 121 -16 270 97 328 75 38
177 41 245 6z m-1972 -208 c61 -6 117 -12 125 -13 8 -2 40 -6 70 -10 69 -9
166 -32 250 -57 132 -41 137 -57 19 -65 -41 -3 -137 -19 -213 -36 -127 -27
-145 -29 -215 -19 -79 10 -224 53 -284 82 -40 21 -107 38 -181 48 -43 6 -82
14 -87 17 -14 8 -11 24 5 24 8 0 33 9 57 19 35 16 67 20 193 20 83 1 201 -4
261 -10z m3792 -64 c92 -21 165 -47 170 -62 2 -5 -11 -16 -29 -23 -18 -6 -65
-25 -105 -41 -74 -30 -110 -40 -228 -66 -88 -19 -403 -24 -455 -6 -19 6 -61
17 -93 23 -34 7 -57 16 -54 23 2 6 41 29 88 52 229 113 208 106 325 113 165
10 294 6 381 -13z m-1578 -274 c-7 -10 -9 -26 -5 -36 7 -18 6 -18 121 3 207
39 263 45 452 46 230 1 337 -12 501 -60 30 -9 28 -28 -5 -44 -73 -34 -237 -75
-348 -88 -120 -13 -407 -7 -557 11 -81 10 -152 16 -157 13 -5 -4 -12 -2 -15 3
-8 12 -97 25 -167 23 -96 -1 -417 -89 -555 -152 -55 -25 -132 -46 -140 -37
-10 10 17 67 37 78 10 5 69 19 131 30 102 18 160 32 368 90 91 25 154 50 230
89 36 18 76 36 90 41 14 4 26 8 28 8 1 1 -3 -7 -9 -18z m-112 -223 c24 -18 58
-44 74 -57 17 -13 47 -29 67 -36 25 -9 43 -23 54 -46 20 -37 24 -89 8 -89 -13
0 -163 110 -173 127 -4 7 -13 13 -19 13 -5 0 -23 10 -39 23 -16 12 -42 32 -59
45 -74 57 11 76 87 20z"/>
<path d="M6356 5178 c-31 -47 -43 -121 -34 -195 15 -106 53 -130 130 -84 64
38 82 52 107 88 l24 31 -19 51 c-10 28 -34 67 -55 87 -31 30 -47 38 -87 42
-45 4 -52 2 -66 -20z"/>
<path d="M8173 4924 c-77 -51 -98 -155 -44 -217 28 -32 95 -62 113 -51 23 15
39 73 45 164 7 110 0 130 -46 130 -15 0 -45 -12 -68 -26z"/>
<path d="M9541 5137 c-43 -21 -65 -72 -63 -143 3 -87 20 -136 54 -148 31 -11
75 5 120 42 43 37 50 62 32 124 -26 87 -43 116 -76 127 -38 13 -38 13 -67 -2z"/>
<path d="M3043 4590 c-54 -33 -68 -132 -34 -234 27 -76 52 -116 73 -116 22 0
82 62 115 118 32 54 33 97 2 157 -39 80 -101 109 -156 75z"/>
<path d="M1460 4318 c-139 -71 -167 -141 -104 -258 25 -47 38 -60 93 -87 91
-46 151 -44 151 6 -1 42 -37 135 -57 146 -10 6 -20 11 -22 12 -8 5 49 80 103
137 68 71 64 86 -24 86 -49 0 -72 -7 -140 -42z"/>
<path d="M14393 3945 c-23 -14 -59 -49 -80 -77 -37 -51 -38 -53 -37 -143 1
-106 20 -157 72 -191 35 -24 80 -21 92 7 31 64 43 93 65 154 15 39 30 84 34
100 5 17 14 42 21 57 19 39 5 77 -33 93 -65 26 -90 26 -134 0z"/>
<path d="M8025 1784 c-78 -40 -115 -101 -115 -189 0 -128 98 -216 224 -201
196 23 241 305 61 387 -49 23 -130 24 -170 3z m169 -65 c23 -18 27 -28 24 -62
-2 -34 -9 -45 -35 -63 l-32 -21 23 -34 c63 -94 61 -89 33 -89 -20 0 -32 13
-63 65 -33 54 -43 65 -63 63 -22 -3 -24 -7 -25 -63 -1 -54 -3 -60 -23 -63 -23
-3 -23 -3 -23 142 l0 146 79 0 c65 0 83 -4 105 -21z"/>
</g>
</svg>
